PathFileType	4	(X/Y/Z)	C:/Users/Carlo/Dropbox/Carlos/SARAH/CongressoMarcha2025/WorkshopOpenSim/C3D/Caso03/pyCGM2 Static.c3d.trc
DataRate	CameraRate	NumFrames	NumMarkers	Units	OrigDataRate	OrigDataStartFrame	OrigNumFrames
100.000000	100.000000	3	128	mm	100.000000	211	422
Frame#	Time	LASI			RASI			LPSI			RPSI			LTHI			LTHAP			LTHAD			LKNE			LKNM			LTIB			LTIAP			LTIAD			LANK			LMED			LHEE			LTOE			RTHI			RTHAP			RTHAD			RKNE			RKNM			RTIB			RTIAP			RTIAD			RANK			RMED			RHEE			RTOE			PELO			PELA			PELL			PELP			LFEO			LFEA			LFEL			LFEP			LTIO			LTIA			LTIL			LTIP			LFOO			LFOA			LFOL			LFOP			LTOO			LTOA			LTOL			LTOP			RFEO			RFEA			RFEL			RFEP			RTIO			RTIA			RTIL			RTIP			RFOO			RFOA			RFOL			RFOP			RTOO			RTOA			RTOL			RTOP			PELVIS_CGM_2.3O			PELVIS_CGM_2.3A			PELVIS_CGM_2.3L			PELVIS_CGM_2.3P			LFEMUR_CGM_2.3O			LFEMUR_CGM_2.3A			LFEMUR_CGM_2.3L			LFEMUR_CGM_2.3P			LTIBIA_CGM_2.3O			LTIBIA_CGM_2.3A			LTIBIA_CGM_2.3L			LTIBIA_CGM_2.3P			LFOOT_CGM_2.3O			LFOOT_CGM_2.3A			LFOOT_CGM_2.3L			LFOOT_CGM_2.3P			LTOES_CGM_2.3O			LTOES_CGM_2.3A			LTOES_CGM_2.3L			LTOES_CGM_2.3P			RFEMUR_CGM_2.3O			RFEMUR_CGM_2.3A			RFEMUR_CGM_2.3L			RFEMUR_CGM_2.3P			RTIBIA_CGM_2.3O			RTIBIA_CGM_2.3A			RTIBIA_CGM_2.3L			RTIBIA_CGM_2.3P			RFOOT_CGM_2.3O			RFOOT_CGM_2.3A			RFOOT_CGM_2.3L			RFOOT_CGM_2.3P			RTOES_CGM_2.3O			RTOES_CGM_2.3A			RTOES_CGM_2.3L			RTOES_CGM_2.3P			LHipAngles			LKneeAngles			LAbsAnkleAngle			LAnkleAngles			RHipAngles			RKneeAngles			RAnkleAngles			RAbsAnkleAngle			LPelvisAngles			RPelvisAngles			LFootProgressAngles			RFootProgressAngles			LHipAngles_CGM_2.3			LKneeAngles_CGM_2.3			LAnkleAngles_CGM_2.3			RHipAngles_CGM_2.3			RKneeAngles_CGM_2.3			RAnkleAngles_CGM_2.3			LFootProgressAngles_CGM_2.3			RFootProgressAngles_CGM_2.3			LPelvisAngles_CGM_2.3			RPelvisAngles_CGM_2.3			LHJC_CGM_2.3			LKJC_CGM_2.3			RHJC_CGM_2.3			RKJC_CGM_2.3			LAJC_CGM_2.3			RAJC_CGM_2.3			
		X1	Y1	Z1	X2	Y2	Z2	X3	Y3	Z3	X4	Y4	Z4	X5	Y5	Z5	X6	Y6	Z6	X7	Y7	Z7	X8	Y8	Z8	X9	Y9	Z9	X10	Y10	Z10	X11	Y11	Z11	X12	Y12	Z12	X13	Y13	Z13	X14	Y14	Z14	X15	Y15	Z15	X16	Y16	Z16	X17	Y17	Z17	X18	Y18	Z18	X19	Y19	Z19	X20	Y20	Z20	X21	Y21	Z21	X22	Y22	Z22	X23	Y23	Z23	X24	Y24	Z24	X25	Y25	Z25	X26	Y26	Z26	X27	Y27	Z27	X28	Y28	Z28	X29	Y29	Z29	X30	Y30	Z30	X31	Y31	Z31	X32	Y32	Z32	X33	Y33	Z33	X34	Y34	Z34	X35	Y35	Z35	X36	Y36	Z36	X37	Y37	Z37	X38	Y38	Z38	X39	Y39	Z39	X40	Y40	Z40	X41	Y41	Z41	X42	Y42	Z42	X43	Y43	Z43	X44	Y44	Z44	X45	Y45	Z45	X46	Y46	Z46	X47	Y47	Z47	X48	Y48	Z48	X49	Y49	Z49	X50	Y50	Z50	X51	Y51	Z51	X52	Y52	Z52	X53	Y53	Z53	X54	Y54	Z54	X55	Y55	Z55	X56	Y56	Z56	X57	Y57	Z57	X58	Y58	Z58	X59	Y59	Z59	X60	Y60	Z60	X61	Y61	Z61	X62	Y62	Z62	X63	Y63	Z63	X64	Y64	Z64	X65	Y65	Z65	X66	Y66	Z66	X67	Y67	Z67	X68	Y68	Z68	X69	Y69	Z69	X70	Y70	Z70	X71	Y71	Z71	X72	Y72	Z72	X73	Y73	Z73	X74	Y74	Z74	X75	Y75	Z75	X76	Y76	Z76	X77	Y77	Z77	X78	Y78	Z78	X79	Y79	Z79	X80	Y80	Z80	X81	Y81	Z81	X82	Y82	Z82	X83	Y83	Z83	X84	Y84	Z84	X85	Y85	Z85	X86	Y86	Z86	X87	Y87	Z87	X88	Y88	Z88	X89	Y89	Z89	X90	Y90	Z90	X91	Y91	Z91	X92	Y92	Z92	X93	Y93	Z93	X94	Y94	Z94	X95	Y95	Z95	X96	Y96	Z96	X97	Y97	Z97	X98	Y98	Z98	X99	Y99	Z99	X100	Y100	Z100	X101	Y101	Z101	X102	Y102	Z102	X103	Y103	Z103	X104	Y104	Z104	X105	Y105	Z105	X106	Y106	Z106	X107	Y107	Z107	X108	Y108	Z108	X109	Y109	Z109	X110	Y110	Z110	X111	Y111	Z111	X112	Y112	Z112	X113	Y113	Z113	X114	Y114	Z114	X115	Y115	Z115	X116	Y116	Z116	X117	Y117	Z117	X118	Y118	Z118	X119	Y119	Z119	X120	Y120	Z120	X121	Y121	Z121	X122	Y122	Z122	X123	Y123	Z123	X124	Y124	Z124	X125	Y125	Z125	X126	Y126	Z126	X127	Y127	Z127	X128	Y128	Z128	

212	2.11	307.0215454101564	988.3930053710942	318.7558593750001	312.4430236816407	977.8554687500005	55.64502716064456	504.2440185546877	993.505004882813	240.2192840576173	506.9383850097659	990.7373046875005	137.9349517822266	340.8807067871095	651.431091308594	374.0447387695314	255.3907470703126	786.3294067382817	319.3769531250001	238.8193969726564	622.5118408203127	311.776336669922	325.2901916503907	490.260192871094	365.861297607422	304.8059692382814	470.2149963378909	241.3919830322267	401.1268310546877	262.5019531250001	367.4666442871095	289.2864074707032	376.3804016113282	297.4607849121095	347.7625122070314	207.9060668945314	292.0791015625001	431.1651000976565	87.93416595458987	348.683319091797	392.4105529785159	93.22290802001956	264.7777099609376	466.2851562500002	57.75410079956058	299.5357666015626	277.5567932128907	56.03161239624026	339.3314819335939	354.0097961425782	687.4614257812502	3.30343270301819	258.7160949707032	778.2126464843755	71.4013595581055	245.4503784179689	612.0671997070315	72.18312072753909	316.3662109375001	475.3876647949221	29.84520149230958	294.6621093750001	468.4015808105471	144.2717895507813	374.2888793945314	303.5772094726564	13.32497596740723	311.0963439941407	317.5078735351564	103.2004776000977	345.2007751464845	184.8611755371094	92.59048461914065	419.6887207031252	78.99550628662112	45.58945846557619	390.3999633789065	93.12738037109378	131.5773010253907	463.1527099609377	50.58523941040042	95.89715576171878	274.2000732421876	47.54984283447267	65.71037292480472	355.0383300781251	896.762573242188	191.5927734375001	193.1130218505861	889.263549804688	188.5566101074219	351.7010498046876	903.249145507813	353.555877685547	347.6683959960939	1058.58642578125	184.9599151611329	313.4180297851564	486.4583435058596	309.2168579101564	-92.1974792480469	535.3950195312502	390.9455566406252	398.7033386230471	513.769714355469	716.1304931640627	355.8536987304689	899.323364257813	272.6119079589845	413.164001464844	90.390739440918	309.709930419922	67.76263427734378	3.596427917480471	463.7740478515627	562.4583129882815	128.4325256347657	665.8491210937502	318.4000244140626	466.6760559082034	309.2414550781251	286.9539489746095	78.36938476562503	349.8296813964845	281.5794372558595	263.1888427734376	332.3408203125001	324.9292297363282	96.59011077880865	530.7132568359377	468.6734619140627	80.02786254882815	311.5118408203126	226.3808135986329	77.81655120849612	362.6022949218751	224.5892944335939	139.4230346679688	356.772674560547	239.0392303466798	83.8901290893555	422.8968200683596	286.9539489746095	78.3693771362305	349.8296813964845	302.4052734375001	473.796569824219	85.60191345214847	-105.9449157714844	530.1064453125002	-15.03831481933594	199.3801269531251	462.0548095703127	497.0592041015627	354.2230224609376	894.201782226563	110.573715209961	405.9892883300784	85.60552215576175	85.80925750732425	51.60610961914065	-9.013450622558597	-19.34860992431641	304.3375854492189	58.67694854736331	452.606384277344	307.6131896972657	454.2794189453127	85.61231994628909	278.9240112304689	72.38957977294925	52.54454040527347	274.0293579101564	256.2960205078126	64.68965148925784	250.1076202392579	59.62599563598636	234.2028656005861	460.9643554687502	75.31398773193362	81.62701416015628	218.2438964843751	71.41479492187503	42.85037994384767	216.6123504638673	132.7169342041016	46.89876937866212	208.6384582519532	67.1602478027344	103.4031600952149	278.9240112304689	72.38959503173831	52.54450988769534	364.0100097656251	911.1770019531255	192.8020019531251	203.6785278320314	903.744018554688	189.8946990966797	360.8022766113282	917.643432617188	353.169647216797	356.701629638672	1071.404418945313	186.195053100586	316.0180053710939	481.1180114746096	309.446990966797	-112.2468566894532	533.6911621093752	371.6692810058595	382.0374145507814	510.0650634765627	739.3886718750002	363.735809326172	912.9101562500005	273.0480957031251	413.0889892578127	90.41419982910159	309.7650146484376	54.51391601562503	1.455818176269532	469.710632324219	568.245300292969	129.2629089355469	679.2099609375002	316.0183105468751	481.1179809570315	309.4477844238282	281.8049926757814	76.57070159912112	325.7619934082032	278.299041748047	262.0614624023439	317.164031982422	320.0596923828126	85.70723724365237	507.2727050781252	463.5116882324221	78.2261657714844	287.3826293945314	221.2359924316407	76.01879882812503	338.5549926757814	220.0673370361329	137.8489837646485	335.6890258789064	233.9875488281251	79.06430816650393	399.0585021972659	281.8048095703126	76.57061767578128	325.7619018554689	305.6310119628907	472.0010070800784	86.20269775390628	-124.8594970703126	534.488952636719	7.059860229492191	223.6050109863282	456.8403625488284	520.4057617187502	364.2830810546876	909.443237304688	112.5564880371094	405.9920043945315	85.58339691162112	85.80460357666018	34.78088378906251	-10.71361541748047	-25.19164276123048	298.6561279296876	57.31092834472659	469.3025512695315	305.6312255859376	472.000915527344	86.20270538330081	270.1329956054689	70.55799865722659	76.2268981933594	266.107391357422	261.7941284179689	82.20725250244143	239.9959259033204	64.01722717285159	265.0977783203126	459.0742187500002	73.58924102783206	106.4801788330079	207.1529998779298	69.5475997924805	66.14240264892581	205.8111267089845	133.2929077148438	68.13584899902347	197.1073150634767	67.36734771728518	129.0992889404297	270.1333312988282	70.55801391601565	76.22682189941409	-2.878436326980592	-12.76628017425538	8.400694847106937	0.7103090882301333	-11.00575256347657	20.57496643066407	0	0	13.29955673217774	0.00772115541622043	10.80275821685791	13.544020652771	-5.504134178161623	-12.28652572631837	9.769101142883304	-2.026456594467164	-1.999858736991883	22.12878227233887	0.007388678845018152	6.431130886077884	13.9354362487793	0	0	13.84598255157471	2.34471082687378	1.073950052261353	2.607617855072022	-2.34471082687378	-1.073950052261353	2.607617855072022	-5.522521495819094	-11.90661334991455	-89.47708892822268	-3.824927330017092	-9.075631141662601	-89.07965850830081	-2.619290113449098	-9.62786960601807	8.849180221557621	1.555709958076478	-14.02589893341065	20.72789955139161	-2.720760107040406	10.85289955139161	13.36939907073975	-5.551889896392824	-8.881589889526371	10.38290023803711	-0.8266519904136662	-5.29457998275757	22.42090034484864	-2.024369955062867	6.586840152740482	13.5472002029419	2.711990118026734	-168.0740051269532	-90.52200317382815	1.813730001449586	-170.9040069580079	-90.91909790039065	177.6909942626954	1.1458899974823	-177.3439941406251	-177.6909942626954	-1.1458899974823	-177.3439941406251	363.7359924316407	912.911010742188	273.0480041503907	316.0180053710939	481.1180114746096	309.446990966797	364.2829895019532	909.443969726563	112.5559997558594	305.6310119628907	472.0010070800784	86.20269775390628	413.0889892578127	90.41419982910159	309.7650146484376	405.9920043945315	85.58339691162112	85.80460357666018	
213	2.12	307.0115051269532	988.362426757813	318.7535095214845	312.4912719726564	977.8667602539067	55.69150161743167	504.2178649902346	993.5264282226567	240.2393646240236	506.9528503417971	990.7261352539067	137.9873352050782	340.8675537109376	651.439147949219	374.0526428222657	255.3806152343751	786.326782226563	319.378143310547	238.8208618164064	622.494812011719	311.7891235351564	325.1851501464845	490.1430358886721	365.7547912597657	304.7746887207032	470.2044677734377	241.3984222412111	401.1474914550784	262.4874877929689	367.4527893066407	289.2918701171876	376.2715454101564	297.4762268066407	347.757537841797	207.9219970703126	292.0808715820314	431.1690673828127	87.95129394531253	348.6800231933595	392.5151367187502	93.24127197265628	264.691131591797	466.2456665039065	57.76306152343753	299.4862670898439	277.5717773437501	56.02483367919925	339.3190002441407	354.0586547851564	687.4609985351565	3.27521324157715	258.7385253906251	778.2121582031255	71.38152313232425	245.5497283935548	612.0863037109377	72.21538543701175	316.469207763672	475.5032043457034	29.7215042114258	294.6840820312501	468.3696594238284	144.2386169433594	374.2820739746095	303.5875244140626	13.2867603302002	311.0800781250001	317.5204162597657	103.1919784545899	345.2503662109376	184.8378143310547	92.64243316650393	419.7336425781252	79.01021575927737	45.56732559204103	390.3794555664065	93.10840606689456	131.5798492431641	463.112487792969	50.55959701538089	95.82839202880862	274.213104248047	47.55060958862306	65.72635650634768	355.0641479492189	896.7562866210942	191.6119384765626	193.1401977539064	889.2434082031255	188.5386962890626	351.6903381347657	903.2182617187505	353.5752563476564	347.6813354492189	1058.580322265625	185.0017242431641	313.2778930664064	486.3667602539065	309.1159667968751	-92.34475708007815	535.4409179687502	391.1185302734377	398.8311157226565	513.4993896484377	716.0643310546877	355.861297607422	899.305053710938	272.6315917968751	413.2211914062502	90.40754699707034	309.6820678710939	67.69982910156253	3.414695739746096	463.2210693359377	561.9704589843752	128.4624481201172	665.9859619140627	318.270477294922	466.5870361328127	309.144256591797	287.0220947265626	78.37538909912112	349.8328247070314	281.6274719238282	263.1943664550782	332.3454589843751	325.040252685547	96.59922790527349	530.7071533203127	468.7320556640627	80.04943847656253	311.4703674316407	226.4521026611329	77.8173751831055	362.6203613281251	224.6539001464845	139.4237213134766	356.791229248047	239.1248321533204	83.89199829101565	422.9117736816409	287.0220947265626	78.37538909912112	349.8328552246095	302.5130310058595	473.8902282714846	85.47878265380862	-105.7695922851563	530.1710205078127	-15.08699035644532	199.5444183349611	461.989440917969	496.8564453125002	354.2669677734376	894.2075195312505	110.5922851562501	406.0093688964846	85.60169982910159	85.7817077636719	51.61584472656253	-8.942375183105472	-19.66860961914063	304.0452575683595	58.70988082885745	452.5694274902346	307.7155761718751	454.3717041015627	85.49397277832034	278.9291381835939	72.40174865722659	52.56788635253909	274.0663452148439	256.3099060058595	64.69975280761722	250.1821441650392	59.65736770629886	234.2385559082032	460.981384277344	75.3017272949219	81.57869720458987	218.2451019287111	71.43511199951175	42.89758682250978	216.6241607666017	132.7378234863282	46.94155120849611	208.6627655029298	67.1869812011719	103.4544754028321	278.929168701172	72.40177154541018	52.56785964965823	364.0289916992189	911.171020507813	192.8159942626954	203.6987762451173	903.7207641601567	189.8834533691407	360.7970581054689	917.5988159179692	353.1846923828126	356.7036743164064	1071.399169921875	186.2461700439454	315.9660034179689	481.0939941406252	309.3970031738282	-112.2833862304688	533.7205810546877	371.680145263672	382.042205810547	509.9612121582034	739.3352050781252	363.7434692382814	912.884887695313	273.0625915527345	413.0969848632815	90.40570068359378	309.7789916992189	54.60186767578128	1.435203552246094	469.8970336914065	568.4002685546877	129.3777465820313	679.1491699218752	315.966033935547	481.0944519042971	309.3967895507814	281.8099975585939	76.55960083007815	325.7500000000001	278.2991638183595	262.0491333007814	317.1270751953126	320.0261230468751	85.72119140625003	507.2675781250002	463.5247192382815	78.21658325195315	287.4087219238282	221.2389984130861	76.00720214843753	338.5310058593751	220.0687255859376	137.8369750976563	335.656707763672	233.9776916503907	79.06105804443362	399.036804199219	281.810516357422	76.55953216552737	325.7505798339845	305.7059936523439	472.0140075683596	86.13880157470706	-124.8024291992188	534.4716796875002	7.069351196289066	223.7432556152345	456.7593688964846	520.3505859375002	364.3152770996095	909.457397460938	112.5701751708985	405.9989929199221	85.57820129394534	85.81300354003909	34.73037719726564	-10.68521118164063	-25.01988983154298	298.7988281250001	57.4328308105469	469.3582153320315	305.7059326171876	472.013366699219	86.13872528076175	270.1369934082032	70.575798034668	76.2362976074219	266.1466674804689	261.813690185547	82.18405914306643	239.995574951172	64.07271575927737	265.1077880859376	459.0782470703127	73.57718658447268	106.4921951293946	207.1569976806642	69.57499694824222	66.15129852294925	205.8268890380861	133.3208923339844	68.1338806152344	197.1098632812501	67.40730285644534	129.1083984375001	270.1373596191407	70.57546234130862	76.23658752441409	-2.871275901794434	-12.81509494781495	8.424119949340824	0.6607576608657839	-10.89653873443604	20.61828613281251	0	0	13.3216953277588	0.007904513739049438	10.70482063293457	13.56210327148438	-5.513955593109133	-12.26776599884034	9.768010139465336	-1.987144112586976	-2.041152477264405	22.11466598510743	0.007169300690293316	6.499473094940189	13.93259525299073	0	0	13.84124469757081	2.336713790893556	1.087051630020142	2.612169742584229	-2.336713790893556	-1.087051630020142	2.612169742584229	-5.522338390350344	-11.92070579528809	-89.4721603393555	-3.820491075515749	-9.053103446960453	-89.08740997314456	-2.625610113143922	-9.643229484558109	8.862669944763187	1.533169984817506	-14.0476999282837	20.74169731140137	-2.731209993362428	10.88819980621338	13.37800025939942	-5.547249317169191	-8.865010261535648	10.38409996032715	-0.8005489706993107	-5.275249958038332	22.40950012207032	-2.018429994583131	6.564760208129886	13.54699993133546	2.719779729843141	-168.0859985351563	-90.52239227294925	1.803740024566651	-170.9040069580079	-90.91030120849612	177.7049865722657	1.15452003479004	-177.3379974365235	-177.7049865722657	-1.15452003479004	-177.3379974365235	363.7430114746095	912.8859863281255	273.0620117187501	315.9660034179689	481.0939941406252	309.3970031738282	364.3150024414064	909.4569702148442	112.5699996948243	305.7059936523439	472.0140075683596	86.13880157470706	413.0969848632815	90.40570068359378	309.7789916992189	405.9989929199221	85.57820129394534	85.81300354003909	
214	2.13	307.2038879394532	988.2197265625005	318.672332763672	312.374481201172	977.8718872070317	55.6226501464844	504.2157287597659	993.5307617187505	240.2747955322267	506.9595947265627	990.7583618164067	138.0043640136719	340.8348693847657	651.4390869140627	374.040008544922	255.344207763672	786.3500976562505	319.3579101562501	238.8093719482423	622.521667480469	311.7185974121095	325.170379638672	490.1535339355471	365.7387084960939	304.8068237304689	470.1919250488284	241.3861389160157	401.1488342285159	262.5362243652345	367.492156982422	289.3252868652345	376.3861083984376	297.4467163085939	347.7977600097657	207.8692779541017	292.0916748046876	431.1585693359377	87.95527648925784	348.6409606933595	392.437927246094	93.23233795166018	264.7664184570314	466.2626647949221	57.76797485351565	299.5062866210939	277.589569091797	56.01382446289065	339.3447265625001	354.0736083984376	687.4710083007815	3.285689592361452	258.7351074218751	778.2324829101567	71.37715911865237	245.5619659423829	612.066101074219	72.2099533081055	316.4883117675782	475.4723815917971	29.72581481933595	294.6640014648439	468.4135437011721	144.2458801269532	374.348114013672	303.5634155273439	13.33159923553468	311.5157470703126	317.431365966797	103.1790237426758	345.2500305175782	184.8877868652344	92.61722564697268	419.7194519042971	78.98003387451175	45.57201385498048	390.3855285644534	93.13051605224612	131.5869140625001	463.1224365234377	50.62763977050784	95.97195434570315	274.2296142578126	47.53086853027345	65.71351623535159	355.1408081054689	896.702758789063	191.4355163574219	193.2162170410157	889.128295898438	188.5506744384766	351.9570922851564	903.0744018554692	353.4062805175782	347.6870727539064	1058.527709960938	184.9231109619141	313.3890380859376	486.3445434570315	309.0757751464845	-92.3610534667969	535.444274902344	390.1387634277346	398.0262756347659	513.7084960937502	716.1419677734377	356.0332946777345	899.2072753906255	272.455535888672	413.1648559570315	90.4075622558594	309.6639099121095	67.84790039062503	3.616638183593752	463.6187438964846	562.3272705078127	128.5252990722657	665.7202148437502	318.3739624023439	466.5629882812502	309.1051330566407	286.9682617187501	78.36687469482425	349.8200988769532	281.551483154297	263.1824951171876	332.3038330078126	324.9893798828126	96.62358093261724	530.6904296875002	468.6769104003909	80.05620574951175	311.4522399902345	226.3987426757814	77.80374908447268	362.6094055175782	224.5931549072267	139.4089660644532	356.7706604003907	239.0724487304689	83.88931274414065	422.8995056152346	286.9682922363282	78.36686706542972	349.8201293945314	302.5071105957032	473.885681152344	85.47756958007815	-105.7143554687501	530.1174316406252	-15.29430389404298	199.3575744628907	462.1791687011721	496.7984619140627	354.2482910156251	894.1983032226567	110.4154739379883	406.0052185058596	85.5956954956055	85.78585052490237	51.5735778808594	-8.961181640625004	-19.53143310546876	304.1684570312501	58.7425231933594	452.6137695312502	307.709686279297	454.3673095703127	85.49302673339847	278.9578247070314	72.33411407470706	52.47131347656253	274.0063781738282	256.2427978515626	64.55950164794925	250.0681152343751	59.61659622192386	234.1212310791017	460.9850158691409	75.31831359863284	81.6299743652344	218.2820587158204	71.33937072753909	42.75175857543947	216.6315917968751	132.6422729492188	46.7811622619629	208.6521606445314	67.10019683837893	103.3017272949219	278.9578247070314	72.334098815918	52.471305847168	364.0469970703126	911.1799926757817	192.7790069580079	203.717010498047	903.7092285156255	189.8878326416016	360.8574829101564	917.5664062500005	353.1502075195314	356.6986389160157	1071.408813476563	186.2521362304688	315.9559936523439	481.091003417969	309.3959960937501	-112.3121948242188	533.7607421875002	371.5131835937501	381.8744506835939	510.0054931640627	739.3552856445315	363.7828063964845	912.8735351562505	273.0264282226564	413.1149902343752	90.40930175781253	309.7770080566407	54.5778503417969	1.400352478027344	469.779479980469	568.3035278320315	129.3638458251954	679.1972656250002	315.9558105468751	481.0910339355471	309.3957519531251	281.832000732422	76.55339813232425	325.7730102539064	278.3048095703126	262.0422668457032	317.1427612304689	320.0805664062501	85.72586059570315	507.2832031250002	463.5395507812502	78.22321319580081	287.3984680175782	221.2630004882814	75.99680328369143	338.5639953613282	220.0872802734376	137.8263549804688	335.6872558593751	234.0125122070314	79.0542907714844	399.067321777344	281.8321228027345	76.55340576171878	325.7724914550782	305.8510131835939	472.0209960937502	86.14360046386722	-124.7283630371094	534.3152465820315	7.332015991210941	224.1551055908204	456.7424926757815	520.4048461914065	364.3114013671876	909.486938476563	112.5327758789063	406.0520019531252	85.56130218505862	85.79720306396487	34.67443847656251	-10.6298828125	-24.73298645019533	299.1430053710939	57.49869918823245	469.4297485351565	305.851531982422	472.0204772949221	86.1431579589844	270.1910095214845	70.54119873046878	76.23010253906253	266.1757202148439	261.7786560058595	82.17546081542972	240.0643920898439	64.03678131103518	265.1038818359376	459.1340942382815	73.56813812255862	106.472023010254	207.2109985351564	69.532096862793	66.14939880371097	205.8725585937501	133.2778472900391	68.13117980957034	197.1688079833986	67.36396026611331	129.1072692871094	270.1919555664064	70.54107666015628	76.23002624511722	-2.915992259979249	-12.61493587493897	8.460969924926761	0.7241541743278506	-11.08290958404541	20.60774040222169	0	0	13.29472637176514	0.007711031008511785	10.77463531494141	13.5377950668335	-5.466956138610842	-12.36776161193848	9.783366203308109	-2.01819658279419	-2.002103328704835	22.10720252990723	0.00734994234517217	6.433961391448978	13.90279388427735	0	0	13.81349277496339	2.30209231376648	1.020394325256348	2.637211322784425	-2.30209231376648	-1.020394325256348	2.637211322784425	-5.531509399414064	-11.92240524291993	-89.46731567382815	-3.807231903076174	-9.099598884582523	-89.06075286865237	-2.643490076065064	-9.604829788208011	8.87780857086182	1.543679952621461	-14.04839992523194	20.75250053405762	-2.724210023880006	10.86040019989014	13.37629985809327	-5.52965021133423	-8.849080085754398	10.37059974670411	-0.7893310189247136	-5.262700080871584	22.37579917907716	-2.005640029907227	6.525340080261234	13.52449893951417	2.722209930419923	-168.0760040283204	-90.52649688720706	1.802909970283509	-170.9080047607422	-90.91780090332034	177.7200012207032	1.139350056648255	-177.3300018310547	-177.7200012207032	-1.139350056648255	-177.3300018310547	363.7829895019532	912.8740234375005	273.0260009765626	315.9559936523439	481.091003417969	309.3959960937501	364.311004638672	909.4869995117192	112.5329971313477	305.8510131835939	472.0209960937502	86.14360046386722	413.1149902343752	90.40930175781253	309.7770080566407	406.0520019531252	85.56130218505862	85.79720306396487	
